HIERARCHY
ROOT Hips
{
 OFFSET 0.000000 0.000000 0.000000
 CHANNELS 6 Xposition Yposition Zposition Yrotation Xrotation Zrotation
 JOINT Chest
 {
  OFFSET 0.000000 9.581000 -0.001100
  CHANNELS 3 Yrotation Xrotation Zrotation
  JOINT Chest2
  {
   OFFSET 0.000000 9.561100 0.002200
   CHANNELS 3 Yrotation Xrotation Zrotation
   JOINT Chest3
   {
    OFFSET 0.000000 9.521100 0.000000
    CHANNELS 3 Yrotation Xrotation Zrotation
    JOINT Chest4
    {
     OFFSET 0.000000 9.511400 0.000000
     CHANNELS 3 Yrotation Xrotation Zrotation
     JOINT Neck
     {
      OFFSET 0.000000 14.375100 0.000000
      CHANNELS 3 Yrotation Xrotation Zrotation
      JOINT Head
      {
       OFFSET 0.000000 8.901200 0.004600
       CHANNELS 3 Yrotation Xrotation Zrotation
       End Site
       {
        OFFSET 0.000000 16.962200 0.002400
       }
      }
     }
     JOINT RightCollar
     {
      OFFSET -2.920100 9.518800 0.000000
      CHANNELS 3 Yrotation Xrotation Zrotation
      JOINT RightShoulder
      {
       OFFSET -13.664500 0.000000 0.000000
       CHANNELS 3 Yrotation Xrotation Zrotation
       JOINT RightElbow
       {
        OFFSET 0.000000 -29.999200 0.000000
        CHANNELS 3 Yrotation Xrotation Zrotation
        JOINT RightWrist
        {
         OFFSET 0.000000 -24.253600 0.000000
         CHANNELS 3 Yrotation Xrotation Zrotation
         End Site
         {
          OFFSET 0.000000 -17.918900 0.000000
         }
        }
       }
      }
     }
     JOINT LeftCollar
     {
      OFFSET 2.920100 9.518800 0.000000
      CHANNELS 3 Yrotation Xrotation Zrotation
      JOINT LeftShoulder
      {
       OFFSET 13.664500 0.000000 0.000000
       CHANNELS 3 Yrotation Xrotation Zrotation
       JOINT LeftElbow
       {
        OFFSET 0.000000 -29.999200 0.000000
        CHANNELS 3 Yrotation Xrotation Zrotation
        JOINT LeftWrist
        {
         OFFSET 0.000000 -24.253600 0.000000
         CHANNELS 3 Yrotation Xrotation Zrotation
         End Site
         {
          OFFSET 0.000000 -17.918900 0.000000
         }
        }
       }
      }
     }
    }
   }
  }
 }
 JOINT RightHip
 {
  OFFSET -7.797300 0.005300 0.000500
  CHANNELS 3 Yrotation Xrotation Zrotation
  JOINT RightKnee
  {
   OFFSET 0.000000 -40.663400 -0.000500
   CHANNELS 3 Yrotation Xrotation Zrotation
   JOINT RightAnkle
   {
    OFFSET 0.000000 -39.523700 -0.000900
    CHANNELS 3 Yrotation Xrotation Zrotation
    JOINT RightToe
    {
     OFFSET 0.000000 -6.418000 14.485300
     CHANNELS 3 Yrotation Xrotation Zrotation
     End Site
     {
      OFFSET 0.000000 -1.465200 6.326400
     }
    }
   }
  }
 }
 JOINT LeftHip
 {
  OFFSET 7.797300 0.005300 0.000500
  CHANNELS 3 Yrotation Xrotation Zrotation
  JOINT LeftKnee
  {
   OFFSET 0.000000 -40.663400 -0.000500
   CHANNELS 3 Yrotation Xrotation Zrotation
   JOINT LeftAnkle
   {
    OFFSET 0.000000 -39.523700 -0.000900
    CHANNELS 3 Yrotation Xrotation Zrotation
    JOINT LeftToe
    {
     OFFSET 0.000000 -6.418000 14.485300
     CHANNELS 3 Yrotation Xrotation Zrotation
     End Site
     {
      OFFSET 0.000000 -1.465200 6.326400
     }
    }
   }
  }
 }
}
MOTION
Frames: 15
Frame Time: 0.008333
-15.536249 126.904800 19.398961 -170.002890 -48.523404 -4.937263 0.487624 24.893808 2.511839 -0.011231 3.916828 0.379701 0.011868 6.285395 0.598843 0.330685 20.655475 2.024629 4.896908 17.998738 1.503563 4.809124 -6.704618 0.423551 -1.329296 2.050840 3.261710 -8.065501 -7.919361 -11.452223 119.314539 -78.561855 -96.831678 24.130302 25.355486 18.202984 -11.389604 -7.360425 2.867286 2.975514 -37.224709 31.466544 53.697608 -46.102262 -68.115473 11.239493 -23.822388 -3.493086 -4.897326 -23.839816 1.024313 -8.807976 76.503496 -7.284912 8.367519 -10.017749 1.217138 0.003045 -0.002407 0.001349 1.301019 -21.131402 -3.647328 50.620482 81.712887 53.285824 6.135673 -13.430483 2.361969 -0.002900 0.001599 -0.001285
-15.535170 126.904636 19.398544 -170.005025 -48.514193 -4.936526 0.492936 24.887492 2.512456 0.002779 3.927016 0.373098 0.016704 6.286482 0.598196 0.335388 20.659660 2.021398 4.845865 17.955415 1.489290 4.741446 -6.762201 0.419565 -1.332071 2.059911 3.269102 -8.103964 -7.895669 -11.416333 120.202041 -78.807652 -97.570571 23.946543 25.152886 18.012656 -11.380908 -7.281987 2.824178 2.984595 -37.006871 31.308049 53.338915 -46.611300 -68.331230 10.932745 -23.501574 -3.449192 -4.923843 -23.844687 1.022537 -8.839767 76.531976 -7.330637 8.423718 -10.184454 1.224732 0.002807 -0.001013 0.001244 1.306288 -21.140951 -3.646614 50.627206 81.716749 53.294091 6.137311 -13.430789 2.360987 -0.002573 0.001525 -0.001140
-15.534291 126.904506 19.398302 -170.011270 -48.506880 -4.930508 0.505984 24.891053 2.507981 0.004902 3.928423 0.371964 0.027836 6.302198 0.588552 0.334372 20.646945 2.029356 4.767462 17.898322 1.446369 4.705832 -6.807816 0.425089 -1.336112 2.053293 3.282115 -8.128787 -7.863252 -11.403987 121.103146 -79.030958 -98.311365 23.765349 24.929963 17.809558 -11.371271 -7.203774 2.764570 3.000247 -36.777700 31.152641 52.961570 -47.144511 -68.535241 10.602411 -23.166990 -3.404891 -4.923856 -23.851831 1.018122 -8.935016 76.560857 -7.422464 8.458143 -10.347427 1.230584 0.003718 -0.000753 0.001647 1.314348 -21.149001 -3.648349 50.621931 81.722484 53.287349 6.145735 -13.431033 2.363523 -0.003222 0.001009 -0.001427
-15.534144 126.904856 19.397848 -170.013098 -48.504955 -4.923029 0.514538 24.913676 2.491230 0.007322 3.933220 0.368520 0.022890 6.276904 0.604406 0.336187 20.648244 2.027514 4.741163 17.879359 1.431498 4.678768 -6.838196 0.420306 -1.320223 2.086861 3.260643 -8.156125 -7.859707 -11.366462 121.984442 -79.210121 -99.035057 23.589000 24.681117 17.585079 -11.360735 -7.115016 2.683823 3.010218 -36.537581 31.006272 52.571153 -47.702708 -68.715234 10.251594 -22.821928 -3.384441 -4.935936 -23.855416 1.000216 -9.101116 76.596501 -7.579654 8.517966 -10.512141 1.219407 0.005048 0.000191 0.002237 1.319723 -21.149625 -3.654110 50.639606 81.720718 53.302591 6.146151 -13.433104 2.366361 -0.002476 0.001681 -0.001097
-15.534214 126.904335 19.398333 -170.027284 -48.498275 -4.903647 0.519328 24.913099 2.477677 0.006205 3.943696 0.362278 0.028218 6.276685 0.601048 0.339677 20.653454 2.016583 4.693590 17.827214 1.412000 4.611576 -6.922828 0.393033 -1.289566 2.132001 3.253646 -8.181650 -7.884034 -11.329284 122.851725 -79.345866 -99.750259 23.413104 24.400263 17.330110 -11.353703 -7.025639 2.625626 3.008972 -36.292052 30.865296 52.174059 -48.286853 -68.869391 9.887575 -22.469590 -3.400563 -4.934598 -23.867310 0.981181 -9.142359 76.628706 -7.619726 8.544778 -10.665417 1.214128 0.003974 0.001181 0.001761 1.331376 -21.157416 -3.663444 50.648451 81.718708 53.310307 6.146727 -13.429854 2.367093 -0.001340 0.001303 -0.000594
-15.533611 126.904277 19.398479 -170.032047 -48.495941 -4.895457 0.519016 24.918372 2.468300 0.004934 3.954305 0.355561 0.026680 6.300890 0.588564 0.347015 20.643162 2.015281 4.651381 17.768826 1.387089 4.549760 -7.013234 0.358630 -1.270736 2.124206 3.266778 -8.115417 -7.840580 -11.352929 123.742153 -79.438642 -100.560430 23.230356 24.086023 17.043804 -11.336459 -6.933465 2.570259 2.989131 -36.039380 30.722095 51.782068 -48.898224 -69.004046 9.513937 -22.113802 -3.459940 -4.931241 -23.875512 0.956388 -9.133766 76.664477 -7.594480 8.553989 -10.815936 1.199600 0.000429 -0.000759 0.000190 1.335037 -21.161872 -3.667920 50.649836 81.717611 53.312362 6.147227 -13.424161 2.366537 -0.000889 0.000661 -0.000394
-15.532541 126.904308 19.398601 -170.036711 -48.495457 -4.890093 0.518020 24.930968 2.455472 0.006562 3.960258 0.354269 0.026452 6.313049 0.582161 0.343033 20.679253 1.983922 4.568937 17.648560 1.329385 4.559802 -7.056698 0.369758 -1.249667 2.066241 3.308808 -8.055146 -7.820041 -11.371549 124.436571 -79.500951 -101.147039 23.040331 23.743881 16.732732 -11.312437 -6.867666 2.545975 2.945179 -35.772600 30.578344 51.401212 -49.530843 -69.123870 9.130096 -21.761596 -3.560438 -4.922936 -23.878827 0.941318 -9.143136 76.694889 -7.589544 8.559298 -10.967239 1.186044 -0.000242 -0.001523 -0.000107 1.338330 -21.163763 -3.669938 50.640848 81.716239 53.307358 6.147552 -13.419120 2.364867 -0.000630 0.000830 -0.000279
-15.532638 126.904154 19.399036 -170.044424 -48.495057 -4.875277 0.517897 24.946383 2.436704 0.006955 3.962834 0.351818 0.026949 6.320219 0.578887 0.343015 20.689564 1.971771 4.530150 17.588256 1.299646 4.523665 -7.124635 0.346650 -1.234316 2.061233 3.320245 -8.026760 -7.836148 -11.366351 125.080405 -79.542136 -101.645638 22.847609 23.382534 16.405287 -11.292843 -6.776838 2.498225 2.885901 -35.492134 30.430297 51.021227 -50.173815 -69.231229 8.739106 -21.420350 -3.687995 -4.910088 -23.882748 0.916549 -9.138598 76.723631 -7.573948 8.580872 -11.114706 1.168643 0.000289 -0.001785 0.000128 1.339897 -21.166531 -3.676279 50.642457 81.717570 53.305286 6.145387 -13.415700 2.364898 -0.000587 0.000421 -0.000260
-15.531688 126.904181 19.399271 -170.045347 -48.496015 -4.871850 0.514666 24.972868 2.414157 0.009384 3.954404 0.358694 0.029217 6.321908 0.579881 0.338437 20.706000 1.954413 4.492270 17.528982 1.269692 4.488578 -7.191309 0.323114 -1.215711 2.051497 3.334497 -7.944068 -7.843446 -11.390634 125.699853 -79.595854 -102.168199 22.654857 23.009999 16.067511 -11.270463 -6.690051 2.454152 2.826557 -35.201000 30.263887 50.631851 -50.818818 -69.332879 8.345899 -21.090261 -3.827878 -4.906848 -23.882744 0.902743 -9.138872 76.747420 -7.565461 8.602301 -11.253970 1.146238 0.000732 -0.002276 0.000324 1.320724 -21.170809 -3.667489 50.658934 81.723206 53.304744 6.142329 -13.413497 2.364040 -0.000427 -0.000797 -0.000189
-15.530896 126.904466 19.399279 -170.045523 -48.499406 -4.868032 0.508663 24.987938 2.397851 0.009351 3.959038 0.356449 0.035807 6.311906 0.588708 0.324947 20.733117 1.928368 4.470623 17.476689 1.252131 4.442970 -7.263026 0.288394 -1.194014 2.062425 3.328473 -7.864316 -7.875837 -11.395166 126.330413 -79.662939 -102.685786 22.466694 22.632772 15.723465 -11.245870 -6.609653 2.410878 2.778575 -34.901663 30.072860 50.227109 -51.458704 -69.431255 7.958393 -20.771932 -3.967947 -4.904739 -23.879696 0.892794 -9.156646 76.767324 -7.575902 8.619069 -11.384272 1.121476 0.001676 -0.002527 0.000743 1.314411 -21.168628 -3.668054 50.675788 81.722528 53.318689 6.141767 -13.415336 2.360239 -0.001052 -0.000319 -0.000466
-15.530266 126.904821 19.399219 -170.059512 -48.503987 -4.852617 0.507814 25.004055 2.380045 0.009031 3.963365 0.354072 0.037701 6.318650 0.581719 0.319782 20.742599 1.917582 4.481163 17.437041 1.258622 4.372978 -7.345679 0.231514 -1.166182 2.048210 3.334022 -7.838431 -7.890231 -11.392367 127.025656 -79.725397 -103.203726 22.281472 22.253309 15.373615 -11.223802 -6.534191 2.361877 2.739027 -34.598407 29.865166 49.795278 -52.085955 -69.510514 7.579666 -20.470716 -4.094289 -4.896792 -23.877305 0.880220 -9.157838 76.784426 -7.571231 8.642446 -11.501698 1.094672 0.001588 -0.002605 0.000704 1.322928 -21.164736 -3.673084 50.683537 81.724605 53.331627 6.146924 -13.419048 2.352190 0.000415 -0.000538 0.000184
-15.529557 126.904709 19.399512 -170.067153 -48.504095 -4.841643 0.498451 25.017131 2.363236 0.008200 3.967327 0.351712 0.024772 6.347353 0.563996 0.343990 20.713573 1.927465 4.436028 17.394899 1.213536 4.338526 -7.408203 0.199506 -1.149126 2.044675 3.329329 -7.756901 -7.909067 -11.416772 127.694075 -79.822248 -103.737950 22.089808 21.871789 15.020892 -11.214757 -6.446985 2.290855 2.689967 -34.290969 29.657175 49.334719 -52.697748 -69.555554 7.194046 -20.186952 -4.187566 -4.925755 -23.878722 0.877984 -9.096821 76.796549 -7.534249 8.669237 -11.605168 1.069259 -0.000378 -0.003043 -0.000167 1.316425 -21.166617 -3.672771 50.686598 81.726628 53.326098 6.151222 -13.419908 2.348548 0.000139 -0.000178 0.000062
-15.527810 126.904931 19.399400 -170.067673 -48.505342 -4.842338 0.483033 25.031664 2.353499 0.006691 3.970732 0.349435 0.033587 6.342660 0.564398 0.315661 20.739494 1.903751 4.412587 17.334399 1.171604 4.308365 -7.467765 0.159439 -1.107712 2.015019 3.334765 -7.687972 -7.925140 -11.439617 128.425293 -79.919158 -104.313103 21.886035 21.492309 14.669696 -11.183383 -6.372975 2.223903 2.614719 -33.980858 29.459033 48.859402 -53.299984 -69.559025 6.784654 -19.913078 -4.244686 -4.939840 -23.887716 0.880783 -9.115792 76.814610 -7.555699 8.689578 -11.660704 1.050596 0.000526 0.000494 0.000233 1.302078 -21.167500 -3.670031 50.717893 81.723956 53.357557 6.152583 -13.419726 2.335406 0.001400 0.000337 0.000621
-15.526799 126.904685 19.399675 -170.078785 -48.503298 -4.830421 0.470957 25.040523 2.337688 0.004782 3.973711 0.347200 0.041742 6.339398 0.566257 0.281976 20.761037 1.880182 4.391168 17.278135 1.127105 4.281948 -7.518050 0.112387 -1.062431 1.986158 3.342450 -7.608271 -7.944467 -11.469648 129.174882 -80.025682 -104.906860 21.669803 21.117815 14.320942 -11.143914 -6.282243 2.154915 2.504736 -33.670652 29.269148 48.382747 -53.912855 -69.513672 6.351447 -19.635560 -4.294130 -4.935656 -23.887367 0.874489 -9.159246 76.818474 -7.591850 8.719779 -11.765576 1.021839 0.002389 -0.001075 0.001058 1.297511 -21.170832 -3.679980 50.708807 81.727327 53.360788 6.165016 -13.420308 2.319796 0.005801 0.000421 0.002570
-15.526276 126.904459 19.399929 -170.089097 -48.500790 -4.816836 0.466362 25.042661 2.324984 -0.004993 3.980523 0.342057 0.016282 6.361224 0.553047 0.295267 20.750018 1.873375 4.356569 17.233603 1.079895 4.261380 -7.564142 0.064399 -1.023520 1.966302 3.342246 -7.506991 -7.972700 -11.498695 129.895315 -80.153392 -105.489029 21.446880 20.748020 13.977193 -11.108773 -6.172613 2.087803 2.362264 -33.356022 29.084075 47.912353 -54.558610 -69.420424 5.904572 -19.346122 -4.359602 -4.944155 -23.888567 0.872396 -9.189130 76.821524 -7.628363 8.740167 -11.857965 0.998992 0.003148 -0.002501 0.001395 1.295404 -21.173820 -3.692222 50.731077 81.722167 53.387304 6.171910 -13.419195 2.308765 0.005395 0.001531 0.002390
